<svg width="38" height="32" viewBox="0 0 38 32" fill="none" xmlns="http://www.w3.org/2000/svg">
<path d="M29.0732 12.931C28.9524 12.9313 28.8337 12.8996 28.729 12.8393C28.6243 12.7789 28.5375 12.692 28.4772 12.5873L22.3729 2.01421C22.2831 1.85638 22.2595 1.66948 22.307 1.49427C22.3546 1.31907 22.4696 1.16979 22.6268 1.07902C22.784 0.988242 22.9707 0.963339 23.1463 1.00974C23.3218 1.05615 23.4718 1.17009 23.5636 1.32671L29.6679 11.8998C29.7282 12.0042 29.76 12.1227 29.76 12.2433C29.7601 12.364 29.7284 12.4825 29.6681 12.587C29.6079 12.6915 29.5212 12.7783 29.4168 12.8386C29.3123 12.899 29.1939 12.9309 29.0732 12.931ZM8.92744 12.931C8.80674 12.9311 8.68814 12.8994 8.5836 12.839C8.47906 12.7787 8.39227 12.6919 8.33198 12.5873C8.27168 12.4827 8.24 12.3641 8.24014 12.2434C8.24027 12.1227 8.27222 12.0042 8.33275 11.8998L14.4371 1.32671C14.4822 1.24852 14.5423 1.17999 14.6139 1.12503C14.6856 1.07007 14.7673 1.02976 14.8545 1.00639C14.9417 0.983029 15.0327 0.977069 15.1222 0.988854C15.2117 1.00064 15.298 1.02994 15.3762 1.07508C15.4544 1.12022 15.5229 1.18032 15.5779 1.25195C15.6328 1.32357 15.6731 1.40532 15.6965 1.49253C15.7199 1.57974 15.7258 1.67069 15.714 1.7602C15.7023 1.84971 15.673 1.93602 15.6278 2.01421L9.5235 12.5873C9.39563 12.8073 9.16463 12.931 8.92744 12.931ZM36.875 14.9935H1.125C0.942664 14.9935 0.767795 14.9211 0.638864 14.7922C0.509933 14.6632 0.4375 14.4884 0.4375 14.306C0.4375 14.1237 0.509933 13.9488 0.638864 13.8199C0.767795 13.691 0.942664 13.6185 1.125 13.6185H36.875C37.0573 13.6185 37.2322 13.691 37.3611 13.8199C37.4901 13.9488 37.5625 14.1237 37.5625 14.306C37.5625 14.4884 37.4901 14.6632 37.3611 14.7922C37.2322 14.9211 37.0573 14.9935 36.875 14.9935Z" fill="black"/>
<path d="M1.125 14.9935C0.942664 14.9935 0.767795 14.9211 0.638864 14.7921C0.509933 14.6632 0.4375 14.4883 0.4375 14.306V10.181C0.4375 9.99866 0.509933 9.8238 0.638864 9.69486C0.767795 9.56593 0.942664 9.4935 1.125 9.4935C1.30734 9.4935 1.4822 9.56593 1.61114 9.69486C1.74007 9.8238 1.8125 9.99866 1.8125 10.181V14.306C1.8125 14.4883 1.74007 14.6632 1.61114 14.7921C1.4822 14.9211 1.30734 14.9935 1.125 14.9935Z" fill="black"/>
<path d="M36.875 10.8685H1.125C0.942664 10.8685 0.767795 10.7961 0.638864 10.6671C0.509933 10.5382 0.4375 10.3633 0.4375 10.181C0.4375 9.99866 0.509933 9.8238 0.638864 9.69486C0.767795 9.56593 0.942664 9.4935 1.125 9.4935H36.875C37.0573 9.4935 37.2322 9.56593 37.3611 9.69486C37.4901 9.8238 37.5625 9.99866 37.5625 10.181C37.5625 10.3633 37.4901 10.5382 37.3611 10.6671C37.2322 10.7961 37.0573 10.8685 36.875 10.8685Z" fill="black"/>
<path d="M37.0495 14.5C36.8672 14.5 36.6923 14.4276 36.5634 14.2986C36.4345 14.1697 36.362 13.9948 36.362 13.8125V9.6875C36.362 9.50516 36.4345 9.3303 36.5634 9.20136C36.6923 9.07243 36.8672 9 37.0495 9C37.2319 9 37.4067 9.07243 37.5357 9.20136C37.6646 9.3303 37.737 9.50516 37.737 9.6875V13.8125C37.737 13.9948 37.6646 14.1697 37.5357 14.2986C37.4067 14.4276 37.2319 14.5 37.0495 14.5ZM28.354 27.5625C28.2586 27.5628 28.1641 27.5432 28.0767 27.5049C27.9893 27.4666 27.9108 27.4105 27.8463 27.3402C27.7818 27.2698 27.7327 27.1868 27.7021 27.0964C27.6715 27.006 27.6601 26.9102 27.6686 26.8152L28.5135 17.1902C28.5207 17.0999 28.5457 17.012 28.5872 16.9316C28.6287 16.8511 28.6858 16.7797 28.7552 16.7215C28.8245 16.6634 28.9048 16.6196 28.9913 16.5928C29.0777 16.5659 29.1687 16.5566 29.2588 16.5653C29.6369 16.5983 29.9167 16.9317 29.883 17.3098L29.0381 26.9348C29.0231 27.106 28.9446 27.2654 28.818 27.3816C28.6914 27.4977 28.5259 27.5623 28.354 27.5625ZM23.765 27.5625L23.734 27.5618C23.5519 27.5538 23.3804 27.4737 23.2572 27.3393C23.1341 27.2048 23.0694 27.0269 23.0775 26.8448L23.4996 17.2198C23.5094 17.0382 23.59 16.8678 23.724 16.745C23.8581 16.6223 24.035 16.557 24.2166 16.5632C24.3988 16.5712 24.5703 16.6513 24.6934 16.7857C24.8166 16.9202 24.8812 17.0981 24.8732 17.2803L24.4511 26.9053C24.4433 27.0821 24.3676 27.249 24.2398 27.3715C24.112 27.4939 23.9419 27.5623 23.765 27.5625ZM19.1745 27.5625C18.9922 27.5625 18.8173 27.4901 18.6884 27.3611C18.5595 27.2322 18.487 27.0573 18.487 26.875V17.25C18.487 17.0677 18.5595 16.8928 18.6884 16.7639C18.8173 16.6349 18.9922 16.5625 19.1745 16.5625C19.3569 16.5625 19.5317 16.6349 19.6607 16.7639C19.7896 16.8928 19.862 17.0677 19.862 17.25V26.875C19.862 27.0573 19.7896 27.2322 19.6607 27.3611C19.5317 27.4901 19.3569 27.5625 19.1745 27.5625ZM14.5848 27.5625C14.4078 27.5623 14.2377 27.4939 14.1099 27.3715C13.9821 27.249 13.9064 27.0821 13.8986 26.9053L13.4765 17.2803C13.4685 17.0981 13.5332 16.9202 13.6563 16.7857C13.7794 16.6513 13.9509 16.5712 14.1331 16.5632C14.3149 16.5564 14.4921 16.6216 14.6263 16.7444C14.7604 16.8673 14.8409 17.038 14.8501 17.2198L15.2723 26.8448C15.2803 27.0269 15.2156 27.2048 15.0925 27.3393C14.9694 27.4737 14.7979 27.5538 14.6157 27.5618L14.5848 27.5625ZM9.99502 27.5625C9.82318 27.5623 9.65765 27.4977 9.53104 27.3816C9.40443 27.2654 9.32591 27.106 9.31096 26.9348L8.46671 17.3098C8.4569 17.2189 8.46533 17.1269 8.49151 17.0393C8.51769 16.9516 8.56109 16.8701 8.61917 16.7994C8.67726 16.7288 8.74885 16.6704 8.82977 16.6278C8.91069 16.5852 8.9993 16.5591 9.09042 16.5512C9.18153 16.5432 9.27332 16.5535 9.3604 16.5815C9.44749 16.6094 9.52812 16.6545 9.59757 16.714C9.66702 16.7735 9.72391 16.8463 9.76488 16.928C9.80586 17.0098 9.83011 17.0989 9.83621 17.1902L10.6805 26.8152C10.6888 26.9102 10.6772 27.0059 10.6465 27.0962C10.6158 27.1865 10.5667 27.2694 10.5022 27.3397C10.4378 27.41 10.3594 27.4661 10.2721 27.5045C10.1847 27.5428 10.0904 27.5626 9.99502 27.5625ZM5.54415 28.6089C5.37747 28.6086 5.21656 28.5478 5.09136 28.4378C4.96616 28.3278 4.88519 28.176 4.86352 28.0107L3.0059 13.9019C2.98208 13.7212 3.03098 13.5384 3.14185 13.3938C3.25272 13.2492 3.41648 13.1545 3.59715 13.1305C3.6868 13.1178 3.77809 13.1231 3.86567 13.146C3.95325 13.169 4.03537 13.2093 4.1072 13.2644C4.17904 13.3195 4.23915 13.3884 4.28402 13.4671C4.3289 13.5457 4.35762 13.6325 4.36852 13.7224L6.22546 27.8313C6.23828 27.9283 6.23024 28.027 6.20187 28.1206C6.1735 28.2143 6.12547 28.3008 6.06097 28.3745C5.99647 28.4481 5.917 28.5071 5.82788 28.5475C5.73875 28.5879 5.64201 28.6088 5.54415 28.6089ZM32.8056 28.6089C32.7077 28.6089 32.611 28.5881 32.5218 28.5477C32.4327 28.5074 32.3531 28.4485 32.2886 28.3749C32.224 28.3014 32.1759 28.2149 32.1475 28.1213C32.119 28.0277 32.1109 27.929 32.1236 27.832L33.9798 13.7231C33.9911 13.6334 34.02 13.5468 34.065 13.4683C34.11 13.3898 34.1701 13.3211 34.2419 13.266C34.3136 13.211 34.3956 13.1707 34.483 13.1475C34.5705 13.1244 34.6616 13.1188 34.7512 13.1312C34.9319 13.1551 35.0956 13.2498 35.2065 13.3945C35.3174 13.5391 35.3663 13.7219 35.3425 13.9026L33.4862 28.0114C33.4644 28.1766 33.3834 28.3282 33.2582 28.4381C33.133 28.5479 32.9722 28.6086 32.8056 28.6089ZM30.0783 31H8.27077C8.08844 31 7.91357 30.9276 7.78464 30.7986C7.6557 30.6697 7.58327 30.4948 7.58327 30.3125C7.58327 30.1302 7.6557 29.9553 7.78464 29.8264C7.91357 29.6974 8.08844 29.625 8.27077 29.625H30.0783C30.2606 29.625 30.4355 29.6974 30.5644 29.8264C30.6933 29.9553 30.7658 30.1302 30.7658 30.3125C30.7658 30.4948 30.6933 30.6697 30.5644 30.7986C30.4355 30.9276 30.2606 31 30.0783 31Z" fill="black"/>
<path d="M8.09692 31.4935C7.26344 31.4916 6.45891 31.1876 5.83232 30.638C5.20573 30.0884 4.79954 29.3304 4.68898 28.5043C4.67425 28.4134 4.67791 28.3206 4.69972 28.2312C4.72154 28.1418 4.76108 28.0577 4.81599 27.9839C4.87091 27.9101 4.94008 27.848 5.01942 27.8014C5.09875 27.7548 5.18664 27.7246 5.27786 27.7126C5.36908 27.7006 5.46178 27.707 5.55048 27.7315C5.63917 27.756 5.72205 27.798 5.79421 27.8551C5.86636 27.9122 5.92632 27.9832 5.97053 28.0639C6.01475 28.1445 6.04232 28.2333 6.0516 28.3248C6.1181 28.8205 6.36196 29.2752 6.73801 29.6049C7.11406 29.9346 7.59683 30.1168 8.09692 30.1178C8.27934 30.1178 8.4543 30.1903 8.5833 30.3193C8.71229 30.4483 8.78476 30.6232 8.78476 30.8057C8.78476 30.9881 8.71229 31.1631 8.5833 31.292C8.4543 31.421 8.27934 31.4935 8.09692 31.4935ZM29.9037 31.4935C29.7214 31.4935 29.5465 31.4211 29.4176 31.2921C29.2887 31.1632 29.2162 30.9883 29.2162 30.806C29.2162 30.6237 29.2887 30.4488 29.4176 30.3199C29.5465 30.1909 29.7214 30.1185 29.9037 30.1185C30.4037 30.1172 30.8864 29.9349 31.2623 29.6052C31.6383 29.2756 31.8823 28.821 31.949 28.3255C31.9602 28.2357 31.9891 28.1491 32.0341 28.0706C32.079 27.992 32.1391 27.9233 32.2109 27.8682C32.2827 27.8131 32.3647 27.7728 32.4521 27.7497C32.5396 27.7266 32.6308 27.7211 32.7204 27.7336C32.9011 27.7575 33.0648 27.8522 33.1757 27.9969C33.2866 28.1415 33.3355 28.3243 33.3117 28.5049C33.201 29.3309 32.7947 30.0888 32.1681 30.6383C31.5415 31.1878 30.7371 31.4916 29.9037 31.4935ZM16.2355 1.67045C16.2355 0.118761 13.8293 0.118761 13.8293 1.67045C13.8293 3.22214 16.2355 3.22214 16.2355 1.67045ZM24.1714 1.67045C24.1714 0.118761 21.7651 0.118761 21.7651 1.67045C21.7651 3.22214 24.1714 3.22214 24.1714 1.67045Z" fill="black"/>
</svg>
